<svg id="Layer_1" data-name="Layer 1" xmlns="http://www.w3.org/2000/svg" xmlns:xlink="http://www.w3.org/1999/xlink" viewBox="0 0 419.81 319.07"><defs><style>.cls-1,.cls-2,.cls-3,.cls-4,.cls-5{fill-rule:evenodd;}.cls-1{fill:url(#linear-gradient);}.cls-2{fill:url(#linear-gradient-2);}.cls-3{fill-opacity:0.14;}.cls-4{fill-opacity:0.09;}.cls-5{fill:url(#linear-gradient-3);}.cls-6{fill:#290b4f;}</style><linearGradient id="linear-gradient" x1="-739" y1="697.98" x2="-738.8" y2="696.79" gradientTransform="matrix(77.79, 0, 0, -121.2, 57730.94, 84584.03)" gradientUnits="userSpaceOnUse"><stop offset="0" stop-color="#f3831c"/><stop offset="0.28" stop-color="#d84924"/><stop offset="0.48" stop-color="#d33524"/><stop offset="1" stop-color="#f08221"/></linearGradient><linearGradient id="linear-gradient-2" x1="-758.27" y1="704.32" x2="-758.07" y2="703.13" gradientTransform="matrix(-77.79, 0, 0, 121.2, -58810.54, -85129.79)" xlink:href="#linear-gradient"/><linearGradient id="linear-gradient-3" x1="-745.82" y1="699.24" x2="-745.32" y2="698.35" gradientTransform="matrix(253.87, 0, 0, -220.03, 189483.59, 153857.94)" xlink:href="#linear-gradient"/></defs><g id="Page-1-Copy"><g id="Desktop-HD"><g id="Logo"><g id="Group"><polygon id="Path-2" class="cls-1" points="213.41 125.28 272.21 4.08 291.2 36.91 252.3 125.28 213.41 125.28"/><polygon id="Path-2-2" data-name="Path-2" class="cls-2" points="206 97.93 147.19 219.14 128.21 186.3 167.1 97.93 206 97.93"/><polygon id="Path-4" class="cls-3" points="233.65 84.47 222.88 106.18 264.26 105.09 265.59 95.33 270.51 83.17 233.65 84.47"/><polyline id="Path-3" class="cls-4" points="160.06 113.95 150.97 134.03 182.62 144.38 201.4 106.18 160.06 113.23"/><polygon id="Path" class="cls-5" points="336.84 110.02 332.52 117.58 305.16 164.95 305.16 165.02 277.8 212.4 273.41 220.03 165.27 220.03 178.51 197.06 213.22 136.94 248.43 136.94 218.12 189.43 255.84 189.43 278.74 149.76 278.81 149.76 292.92 125.28 91.75 125.28 87.36 117.65 82.97 110.02 87.36 102.38 114.72 55.08 114.72 55.01 142.01 7.63 146.47 0 254.62 0 236.98 30.6 236.91 30.6 206.59 83.09 171.39 83.09 201.7 30.6 164.04 30.6 141.07 70.27 126.96 94.75 328.06 94.75 332.52 102.38 336.84 110.02"/></g><g id="Hash-Studio"><polygon id="Path-2-3" data-name="Path" class="cls-6" points="31.94 280.13 31.94 294.24 6.94 294.24 6.94 280.13 0 280.13 0 319.01 6.94 319.01 6.94 301.19 31.94 301.19 31.94 319.01 38.88 319.01 38.88 280.13 31.94 280.13"/><polygon id="Path-3-2" data-name="Path" class="cls-6" points="78.32 312.07 62.04 280.13 45.77 312.07 42.22 319.01 49.99 319.01 53.55 312.07 62.04 295.41 70.54 312.07 74.1 319.01 81.87 319.01 78.32 312.07"/><path id="Path-4-2" data-name="Path" class="cls-6" d="M119.52,296.81v-.23A10.53,10.53,0,0,0,109,286.09H93.24A10.48,10.48,0,0,0,82.8,296.58v.23a10.37,10.37,0,0,0,1.83,5.94A9.91,9.91,0,0,0,86,304.42a10.39,10.39,0,0,0,7.27,2.94h14a5.33,5.33,0,1,1,0,10.66H95.08a5.33,5.33,0,0,1-5.34-5.33H82.8A12.28,12.28,0,0,0,95.08,325h12.16a12.27,12.27,0,0,0,9.5-20.05c-.17-.17-.28-.34-.45-.5a12.16,12.16,0,0,0-9.05-4h-14a3.58,3.58,0,0,1-3.55-3.56v-.22a3.59,3.59,0,0,1,3.55-3.56H109a3.59,3.59,0,0,1,3.55,3.56v.22Z" transform="translate(-0.59 -5.95)"/><polygon id="Path-5" data-name="Path" class="cls-6" points="156.42 280.13 156.42 294.24 131.42 294.24 131.42 280.13 124.48 280.13 124.48 319.01 131.42 319.01 131.42 301.19 156.42 301.19 156.42 319.01 163.36 319.01 163.36 280.13 156.42 280.13"/><path id="Path-6" data-name="Path" class="cls-6" d="M233.33,296.81v-.23a10.52,10.52,0,0,0-10.5-10.49H207.06a10.48,10.48,0,0,0-10.45,10.49v.23a10.3,10.3,0,0,0,1.84,5.94,9.86,9.86,0,0,0,1.33,1.67,10.39,10.39,0,0,0,7.28,2.94h14a5.33,5.33,0,1,1,0,10.66H208.89a5.33,5.33,0,0,1-5.33-5.33h-6.95A12.28,12.28,0,0,0,208.89,325h12.16a12.27,12.27,0,0,0,9.5-20.05c-.16-.17-.28-.34-.44-.5a12.19,12.19,0,0,0-9.06-4h-14a3.58,3.58,0,0,1-3.56-3.56v-.22a3.59,3.59,0,0,1,3.56-3.56h15.77a3.59,3.59,0,0,1,3.56,3.56v.22Z" transform="translate(-0.59 -5.95)"/><polygon id="Path-7" data-name="Path" class="cls-6" points="236.46 280.19 236.46 287.13 252.4 287.13 252.4 319.07 259.34 319.07 259.34 287.13 275.28 287.13 275.28 280.19 236.46 280.19"/><path id="Path-8" data-name="Path" class="cls-6" d="M313.43,286.09v19.44a12.5,12.5,0,0,1-25,0V286.09h-6.94v19.44a19.44,19.44,0,0,0,38.88,0V286.09Z" transform="translate(-0.59 -5.95)"/><path id="Shape" class="cls-6" d="M345.36,286.09H325.92V325h19.44A19.11,19.11,0,0,0,359,319.25c.39-.39.78-.78,1.11-1.17a19.39,19.39,0,0,0-14.83-31.94Zm-.05,32h-12.5v-25h12.5a12.5,12.5,0,0,1,0,25Z" transform="translate(-0.59 -5.95)"/><polygon id="Path-9" data-name="Path" class="cls-6" points="376.71 319.01 376.71 280.13 369.77 280.13 369.77 319.01 376.71 319.01"/><path id="Shape-2" data-name="Shape" class="cls-6" d="M401,286.09a19.44,19.44,0,1,0,19.44,19.44A19.47,19.47,0,0,0,401,286.09ZM401,318a12.5,12.5,0,1,1,12.49-12.49A12.52,12.52,0,0,1,401,318Z" transform="translate(-0.59 -5.95)"/></g></g></g></g></svg>